<svg version="1.2" xmlns="http://www.w3.org/2000/svg" viewBox="0 0 59 58" width="59" height="58"><defs><clipPath clipPathUnits="userSpaceOnUse" id="cp1"><path d="m-516-1254h1366v3086h-1366z" /></clipPath></defs><style>.s0{fill:#5863f8}.s1{fill:#000000}</style><g clip-path="url(#cp1)"><path class="s0" d="m29.5 58c-16.3 0-29.5-13-29.5-29c0-16 13.2-29 29.5-29c16.3 0 29.5 13 29.5 29c0 16-13.2 29-29.5 29z" /><path fill-rule="evenodd" class="s1" d="m23.5 23v3.5c0 0.4-0.3 0.7-0.6 0.7h-3.1c-0.3 0-0.6-0.3-0.6-0.7v-3.5c0-0.4 0.3-0.7 0.6-0.7h3.1c0.3 0 0.6 0.3 0.6 0.7zm-1.3 0.6h-1.8v2.3h1.8z" /><path fill-rule="evenodd" class="s1" d="m23.5 30.1v3.6c0 0.3-0.3 0.6-0.6 0.6h-3.1c-0.3 0-0.6-0.3-0.6-0.6v-3.6c0-0.3 0.3-0.6 0.6-0.6h3.1c0.3 0 0.6 0.3 0.6 0.6zm-1.3 0.7h-1.8v2.3h1.8z" /><path fill-rule="evenodd" class="s1" d="m23.5 37.3v3.6c0 0.3-0.3 0.6-0.6 0.6h-3.1c-0.3 0-0.6-0.3-0.6-0.6v-3.6c0-0.4 0.3-0.7 0.6-0.7h3.1c0.3 0 0.6 0.3 0.6 0.7zm-1.3 0.6h-1.8v2.3h1.8z" /><path fill-rule="evenodd" class="s1" d="m40.2 37.3v3.6c0 0.3-0.3 0.6-0.6 0.6h-3.1c-0.4 0-0.6-0.3-0.6-0.6v-3.6c0-0.4 0.2-0.7 0.6-0.7h3.1c0.3 0 0.6 0.3 0.6 0.7zm-1.3 0.6h-1.8v2.3h1.8z" /><path fill-rule="evenodd" class="s1" d="m29.1 23v3.5c0 0.4-0.3 0.7-0.7 0.7h-3c-0.4 0-0.7-0.3-0.7-0.7v-3.5c0-0.4 0.3-0.7 0.7-0.7h3c0.4 0 0.7 0.3 0.7 0.7zm-1.3 0.6h-1.8v2.3h1.8z" /><path fill-rule="evenodd" class="s1" d="m34.6 23v3.5c0 0.4-0.2 0.7-0.6 0.7h-3.1c-0.3 0-0.6-0.3-0.6-0.7v-3.5c0-0.4 0.3-0.7 0.6-0.7h3.1c0.4 0 0.6 0.3 0.6 0.7zm-1.2 0.6h-1.8v2.3h1.8z" /><path fill-rule="evenodd" class="s1" d="m29.1 30.1v3.6c0 0.3-0.3 0.6-0.7 0.6h-3c-0.4 0-0.7-0.3-0.7-0.6v-3.6c0-0.3 0.3-0.6 0.7-0.6h3c0.4 0 0.7 0.3 0.7 0.6zm-1.3 0.7h-1.8v2.3h1.8z" /><path fill-rule="evenodd" class="s1" d="m34.6 30.1v3.6c0 0.3-0.2 0.6-0.6 0.6h-3.1c-0.3 0-0.6-0.3-0.6-0.6v-3.6c0-0.3 0.3-0.6 0.6-0.6h3.1c0.4 0 0.6 0.3 0.6 0.6zm-1.2 0.7h-1.8v2.3h1.8z" /><path fill-rule="evenodd" class="s1" d="m40.2 23v3.5c0 0.4-0.3 0.7-0.6 0.7h-3.1c-0.4 0-0.6-0.3-0.6-0.7v-3.5c0-0.4 0.2-0.7 0.6-0.7h3.1c0.3 0 0.6 0.3 0.6 0.7zm-1.3 0.6h-1.8v2.3h1.8z" /><path fill-rule="evenodd" class="s1" d="m40.2 30.1v3.6c0 0.3-0.3 0.6-0.6 0.6h-3.1c-0.4 0-0.6-0.3-0.6-0.6v-3.6c0-0.3 0.2-0.6 0.6-0.6h3.1c0.3 0 0.6 0.3 0.6 0.6zm-1.3 0.7h-1.8v2.3h1.8z" /><path fill-rule="evenodd" class="s1" d="m45.7 45.1c0 0.3-0.3 0.6-0.6 0.6h-31.5c-0.3 0-0.6-0.3-0.6-0.6c0-0.4 0.3-0.6 0.6-0.6h2.4v-24.8c0-0.4 0.3-0.7 0.7-0.7h3.5v-2.3c0-0.3 0.3-0.6 0.7-0.6h3.5v-2.5c0-0.3 0.3-0.6 0.6-0.6h8.7c0.4 0 0.7 0.3 0.7 0.6v2.5h3.5c0.3 0 0.6 0.3 0.6 0.6v2.3h3.6c0.3 0 0.6 0.3 0.6 0.7v24.8h2.4c0.3 0 0.6 0.2 0.6 0.6zm-20-29h7.4v-1.8h-7.4zm15.7 4.2h-11.9c-0.4 0-0.7-0.3-0.7-0.6c0-0.4 0.3-0.7 0.7-0.7h7.7v-1.6h-15.7v1.6h2.9c0.4 0 0.7 0.3 0.7 0.7c0 0.3-0.3 0.6-0.7 0.6h-7.1v24.2h8.1v-7.7h-0.2c-0.4 0-0.7-0.3-0.7-0.6c0-0.4 0.3-0.7 0.7-0.7h8.4c0.3 0 0.6 0.3 0.6 0.7c0 0.3-0.3 0.6-0.6 0.6h-0.3v7.7h8.1zm-9.3 16.5h-1.3l-4.1 4.1v2.7l5.3-5.4q0 0 0.1 0zm-3.1 0h-2.3v2.3zm3.1 3.2l-4.5 4.5h4.5z" /><path class="s1" d="m27.5 19.7q0 0.2-0.1 0.4q-0.2 0.2-0.5 0.2q-0.3 0-0.4-0.2q-0.2-0.2-0.2-0.4q0-0.3 0.2-0.5q0.1-0.2 0.4-0.2q0.3 0 0.5 0.2q0.1 0.2 0.1 0.5z" /></g></svg>