<svg version="1.2" xmlns="http://www.w3.org/2000/svg" viewBox="0 0 36 36" width="36" height="36"><defs><clipPath clipPathUnits="userSpaceOnUse" id="cp1"><path d="m-139-2259h1366v2408h-1366z" /></clipPath></defs><style>.s0{fill:#3b5998}.s1{fill:#ffffff}</style><g clip-path="url(#cp1)"><path class="s0" d="m17.5 35c-9.7 0-17.5-7.8-17.5-17.5c0-9.7 7.8-17.5 17.5-17.5c9.7 0 17.5 7.8 17.5 17.5c0 9.7-7.8 17.5-17.5 17.5z" /><path class="s1" d="m21.9 17.2h-3.1v11.4h-4.7v-11.4h-2.3v-4h2.3v-2.6c0-1.9 0.8-4.8 4.7-4.8l3.5 0.1v3.8h-2.5c-0.4 0-1 0.3-1 1.1v2.4h3.5z" /></g></svg>