<svg version="1.2" xmlns="http://www.w3.org/2000/svg" viewBox="0 0 35 35" width="35" height="35"><defs><clipPath clipPathUnits="userSpaceOnUse" id="cp1"><path d="m-230-2259h1366v2408h-1366z" /></clipPath></defs><style>.s0{fill:#dc4e41}.s1{fill:#ffffff}</style><g clip-path="url(#cp1)"><path class="s0" d="m17.5 35c-9.7 0-17.5-7.8-17.5-17.5c0-9.7 7.8-17.5 17.5-17.5c9.7 0 17.5 7.8 17.5 17.5c0 9.7-7.8 17.5-17.5 17.5z" /><path class="s0" d="m12.8 10.9c2-0.2 3.9 0.6 5.3 1.8q-0.9 1-1.8 1.9c-1.3-0.8-2.9-1.4-4.4-0.8c-2.5 0.7-4 3.6-3.1 6c0.8 2.5 3.8 3.9 6.2 2.8c1.3-0.4 2.1-1.6 2.4-2.8c-1.4 0-2.8 0-4.2-0.1q0-1.2 0-2.5q3.5 0 7.1 0c0.1 2.1-0.2 4.3-1.5 6c-1.9 2.3-5.3 3-8 2.1c-3-1-5.1-3.9-5-7c-0.2-3.9 3.2-7.4 7-7.4z" /><path class="s0" d="m27 15.1q0 1 0 2.1q1.1 0 2.1 0q0 1.1 0 2.1q-1 0-2.1 0q0 1.1 0 2.2q-1 0-2.1 0q0-1.1 0-2.2q-1.1 0-2.1 0q0-1 0-2.1q1 0 2.1 0q0-1.1 0-2.1q1.1 0 2.1 0z" /><path class="s1" d="m5.8 18.3c-0.2-3.9 3.2-7.4 7-7.4c2-0.2 3.9 0.6 5.3 1.8q-0.9 1-1.8 1.9c-1.3-0.8-2.9-1.4-4.4-0.8c-2.5 0.7-4 3.6-3.1 6c0.8 2.5 3.8 3.9 6.2 2.8c1.3-0.4 2.1-1.6 2.4-2.8c-1.4 0-2.8 0-4.2-0.1q0-1.2 0-2.5q3.5 0 7.1 0c0.1 2.1-0.2 4.3-1.5 6c-1.9 2.3-5.3 3-8 2.1c-3-1-5.1-3.9-5-7z" /><path class="s1" d="m24.9 15.1q1.1 0 2.1 0q0 1 0 2.1q1.1 0 2.1 0q0 1.1 0 2.1q-1 0-2.1 0q0 1.1 0 2.2q-1 0-2.1 0q0-1.1 0-2.2q-1.1 0-2.1 0q0-1 0-2.1q1 0 2.1 0q0-1.1 0-2.1z" /></g></svg>