<svg version="1.2" xmlns="http://www.w3.org/2000/svg" viewBox="0 0 36 36" width="36" height="36"><defs><clipPath clipPathUnits="userSpaceOnUse" id="cp1"><path d="m-184-2259h1366v2408h-1366z" /></clipPath></defs><style>.s0{fill:#55acee}.s1{fill:#f1f2f2}</style><g clip-path="url(#cp1)"><path class="s0" d="m17.9 35c-9.7 0-17.5-7.8-17.5-17.5c0-9.7 7.8-17.5 17.5-17.5c9.7 0 17.5 7.8 17.5 17.5c0 9.7-7.8 17.5-17.5 17.5z" /><path class="s1" d="m26.5 14.8q0 0.2 0 0.5c0 5.5-4.2 11.9-11.8 11.9c-2.4 0-4.6-0.7-6.4-1.9q0.4 0.1 1 0.1c1.9 0 3.7-0.7 5.1-1.8c-1.8-0.1-3.3-1.3-3.9-2.9q0.4 0 0.8 0q0.6 0 1.1-0.1c-1.9-0.4-3.3-2.1-3.3-4.1q0 0 0 0q0.8 0.4 1.9 0.5c-1.2-0.8-1.9-2.1-1.9-3.5c0-0.8 0.2-1.5 0.6-2.1c2 2.5 5.1 4.2 8.6 4.4q-0.1-0.5-0.1-1c0-2.3 1.8-4.2 4.1-4.2c1.2 0 2.3 0.5 3.1 1.4q1.4-0.3 2.6-1.1c-0.3 1-0.9 1.8-1.8 2.4q1.3-0.2 2.4-0.7q-0.9 1.3-2.1 2.2z" /></g></svg>